<svg width="400" height="400" viewBox="0 0 400 400" fill="none" xmlns="http://www.w3.org/2000/svg">
<path d="M74 375V25H232.28C256.492 25 276.91 28.3333 293.533 35C310.156 41.6667 322.623 51.6667 330.935 65C339.607 78 343.944 94 343.944 113C343.944 132 338.162 148.167 326.598 161.5C315.396 174.833 299.676 184 279.439 189V179C296.424 182.333 311.24 188.333 323.888 197C336.536 205.333 346.293 215.833 353.159 228.5C360.386 241.167 364 255.667 364 272C364 288.667 361.109 303.5 355.327 316.5C349.907 329.167 341.595 339.833 330.393 348.5C319.551 357.167 306.361 363.833 290.822 368.5C275.284 372.833 257.576 375 237.701 375H74ZM132.542 323H234.449C249.265 323 261.732 321 271.85 317C282.33 313 290.28 307.167 295.701 299.5C301.483 291.5 304.374 282 304.374 271C304.374 260.667 301.302 251.833 295.159 244.5C289.377 237.167 281.065 231.667 270.224 228C259.383 224 246.555 222 231.738 222H132.542V323ZM132.542 170H229.028C239.869 170 249.445 168 257.757 164C266.43 160 273.115 154.5 277.813 147.5C282.872 140.5 285.402 132.5 285.402 123.5C285.402 108.5 279.981 97 269.14 89C258.299 81 242.76 77 222.523 77H132.542V170Z" fill="white"/>
</svg>
