<svg version="1.2" xmlns="http://www.w3.org/2000/svg" viewBox="0 0 844 585" width="844" height="585">
	<title>undraw_to-the-moon_w1wa (1) 1 (1)</title>
	<defs>
		<clipPath clipPathUnits="userSpaceOnUse" id="cp1">
			<path d="m0 0h926v584.96h-926z"/>
		</clipPath>
	</defs>
	<style>
		.s0 { fill: #d6d6e3 } 
		.s1 { fill: #000000 } 
		.s2 { fill: #f2f2f2 } 
		.s3 { fill: #171717 } 
	</style>
	<g id="Clip-Path" clip-path="url(#cp1)">
		<g>
			<path class="s0" d="m422 465.7c-232.6 0-421.2 53.4-422 119.3h844c-0.8-65.9-189.4-119.3-422-119.3z"/>
			<g style="opacity: .1">
				<path class="s1" d="m352 567.6c44.2 0 80-10 80-22.3 0-12.2-35.8-22.2-80-22.2-44.2 0-80 10-80 22.2 0 12.3 35.8 22.3 80 22.3z"/>
			</g>
			<g style="opacity: .1">
				<path class="s1" d="m525 527.6c44.2 0 80-10 80-22.3 0-12.2-35.8-22.2-80-22.2-44.2 0-80 10-80 22.2 0 12.3 35.8 22.3 80 22.3z"/>
			</g>
			<g style="opacity: .1">
				<path class="s1" d="m352 565.3c39.8 0 72-8.9 72-20 0-11-32.2-20-72-20-39.8 0-72 9-72 20 0 11.1 32.2 20 72 20z"/>
			</g>
			<g style="opacity: .1">
				<path class="s1" d="m525 525.3c39.8 0 72-8.9 72-20 0-11-32.2-20-72-20-39.8 0-72 9-72 20 0 11.1 32.2 20 72 20z"/>
			</g>
			<path class="s2" d="m679 269.3h-1.8v-1.8h-0.4v1.8h-1.8v0.3h1.8v1.9h0.4v-1.9h1.8z"/>
			<path class="s0" d="m611.7 221l-26.4 60.9 5.2 8.7-1.8 2.8 12.1 6.4v-3.5l4.6-1.1 19.6-35.7z"/>
			<path class="s0" d="m591.1 292.9c0 0-19.6 30.4 2.3 35 21.8 4.6 4-32.2 4-32.2z"/>
			<path class="s2" d="m619.2 279.1l-6.9 22.4-2.9 28.7-5.1 10.4 5.7 46.5 9.2 9.2 4 46v20.7l11 19-14.1 20c-0.7 0.9-1.1 2-1.1 3.1-0.1 1.2 0.1 2.3 0.6 3.4 0.5 1 1.3 1.9 2.3 2.5 0.9 0.6 2 1 3.2 1 3.1 0.1 7.2-0.8 12.5-3.6 16.7-8.6 16.1-16.6 16.1-16.6 0 0 10.4 0 10.9-8.1 0.6-8-6.3-65.5-6.3-65.5l-6.3-24.7v-67.3h2.3l1.1 57.5 5.2 21.3 0.6 9.2 7.5 91.9c0 0 33.3 9.2 35 1.8 1.8-7.5-12.6-12.1-12.6-12.1l8.6-16.7v-32.2l-2.9-6.9 3.5-38v-17.7l4.6-5.8v-46l-5.8-17.8-1.7-14.9-9.2-23c0 0-42-13.8-69 2.3z"/>
			<path class="s3" d="m694 149.1c0 7-1.7 13.8-4.8 19.9-3.2 6.2-7.7 11.5-13.3 15.6-5.7 4-12.1 6.7-19 7.7-6.8 1.1-13.8 0.5-20.4-1.7-6.5-2.2-12.5-5.8-17.3-10.8-4.9-4.9-8.5-10.9-10.6-17.5-2.1-6.6-2.6-13.6-1.4-20.4 1.1-6.8 3.9-13.3 8-18.8 5.5-7.4 13.2-12.9 21.9-15.6 8.8-2.8 18.2-2.7 26.9 0.2 8.7 2.8 16.3 8.4 21.7 15.9 5.4 7.4 8.3 16.4 8.3 25.5z"/>
			<path class="s2" d="m701.2 134.5l-15.9 14.6c-26.8-69.5-69.4-26.8-70.1-26 4.4-5.9 10.2-10.7 17-13.7 6.7-3.1 14.1-4.4 21.4-3.8 15 1.1 40.6 15.7 47.6 28.9z"/>
			<path class="s2" d="m682.9 120.1l6 20.8c0 0-12.4 37.3-70.1 38.6l-1.9 5.3-6.3 1.7-2.9 12.1 8.1 76.4c0 0-3.5 7.5 2.3 6.9 0 0 37.9-12.6 70.7-1.1 0 0 6.9 2.9 5.2-3.5 0 0 23-14.3 21.2-29.3-1.7-14.9 1.8-84.5 1.8-84.5 0 0 3.4-20.1-6.9-24.7 0 0-15.2-21.3-27.2-18.7z"/>
			<path class="s0" d="m670.3 265.4c0 0-36 3.6-26 23.6 9.9 19.9 27.7-16.9 27.7-16.9z"/>
			<path class="s0" d="m688.8 176.2c0 0-6.3 7.4-4 19.5 2.3 12.1 10.9 39.1 10.9 39.1l-30.5 28.2 9.2 12.6 41.4-21.3 9.2-5.7c-2.3-23.3-8-46-16.9-67.6l-1.5-3.7c0 0-10.9-4.6-17.8-1.1z"/>
		</g>
	</g>
</svg>