<svg width="500" height="500" viewBox="0 0 500 500" xmlns="http://www.w3.org/2000/svg">
  <rect width="100%" height="100%" fill="#171717" />
  <circle cx="90" cy="362" r="0.66" fill="white" opacity="0.28"/><circle cx="445" cy="417" r="0.35" fill="white" opacity="0.28"/><circle cx="397" cy="186" r="0.56" fill="white" opacity="0.57"/><circle cx="428" cy="222" r="0.42" fill="white" opacity="0.47"/><circle cx="370" cy="51" r="0.75" fill="white" opacity="0.49"/><circle cx="186" cy="261" r="0.81" fill="white" opacity="0.47"/><circle cx="308" cy="165" r="0.6" fill="white" opacity="0.28"/><circle cx="20" cy="231" r="0.59" fill="white" opacity="0.41"/><circle cx="366" cy="476" r="0.31" fill="white" opacity="0.3"/><circle cx="305" cy="30" r="0.75" fill="white" opacity="0.46"/><circle cx="390" cy="351" r="0.51" fill="white" opacity="0.55"/><circle cx="52" cy="384" r="0.64" fill="white" opacity="0.23"/><circle cx="158" cy="104" r="0.39" fill="white" opacity="0.4"/><circle cx="337" cy="250" r="0.79" fill="white" opacity="0.25"/><circle cx="92" cy="309" r="0.57" fill="white" opacity="0.45"/><circle cx="52" cy="62" r="0.8" fill="white" opacity="0.51"/><circle cx="262" cy="463" r="0.57" fill="white" opacity="0.47"/><circle cx="416" cy="36" r="0.68" fill="white" opacity="0.58"/><circle cx="86" cy="197" r="0.56" fill="white" opacity="0.47"/><circle cx="127" cy="383" r="0.82" fill="white" opacity="0.56"/><circle cx="279" cy="401" r="0.75" fill="white" opacity="0.23"/><circle cx="270" cy="163" r="0.91" fill="white" opacity="0.5"/><circle cx="79" cy="21" r="0.86" fill="white" opacity="0.57"/><circle cx="414" cy="142" r="0.35" fill="white" opacity="0.55"/><circle cx="139" cy="470" r="0.74" fill="white" opacity="0.32"/><circle cx="404" cy="340" r="0.9" fill="white" opacity="0.37"/><circle cx="229" cy="263" r="0.95" fill="white" opacity="0.6"/><circle cx="475" cy="230" r="0.45" fill="white" opacity="0.4"/><circle cx="127" cy="186" r="0.51" fill="white" opacity="0.44"/><circle cx="422" cy="61" r="0.65" fill="white" opacity="0.54"/><circle cx="69" cy="273" r="0.52" fill="white" opacity="0.46"/><circle cx="436" cy="118" r="0.55" fill="white" opacity="0.56"/><circle cx="202" cy="202" r="0.65" fill="white" opacity="0.55"/><circle cx="205" cy="280" r="0.89" fill="white" opacity="0.41"/><circle cx="405" cy="440" r="0.66" fill="white" opacity="0.33"/><circle cx="277" cy="314" r="0.67" fill="white" opacity="0.23"/><circle cx="218" cy="324" r="0.46" fill="white" opacity="0.26"/><circle cx="43" cy="364" r="0.66" fill="white" opacity="0.57"/><circle cx="145" cy="413" r="0.46" fill="white" opacity="0.38"/><circle cx="138" cy="57" r="0.78" fill="white" opacity="0.36"/><circle cx="283" cy="473" r="0.92" fill="white" opacity="0.47"/><circle cx="133" cy="370" r="0.5" fill="white" opacity="0.57"/><circle cx="413" cy="398" r="0.68" fill="white" opacity="0.5"/><circle cx="269" cy="298" r="0.96" fill="white" opacity="0.48"/><circle cx="464" cy="91" r="0.92" fill="white" opacity="0.32"/><circle cx="40" cy="462" r="0.97" fill="white" opacity="0.34"/><circle cx="368" cy="265" r="0.73" fill="white" opacity="0.48"/><circle cx="320" cy="140" r="0.71" fill="white" opacity="0.33"/><circle cx="283" cy="145" r="0.62" fill="white" opacity="0.54"/><circle cx="71" cy="32" r="0.89" fill="white" opacity="0.23"/><circle cx="261" cy="368" r="0.86" fill="white" opacity="0.45"/><circle cx="85" cy="245" r="0.4" fill="white" opacity="0.21"/><circle cx="219" cy="171" r="0.66" fill="white" opacity="0.6"/><circle cx="370" cy="162" r="0.83" fill="white" opacity="0.51"/><circle cx="482" cy="356" r="0.38" fill="white" opacity="0.49"/><circle cx="429" cy="261" r="0.9" fill="white" opacity="0.52"/><circle cx="243" cy="237" r="0.95" fill="white" opacity="0.36"/><circle cx="471" cy="108" r="0.92" fill="white" opacity="0.42"/><circle cx="142" cy="200" r="0.74" fill="white" opacity="0.54"/><circle cx="391" cy="329" r="0.6" fill="white" opacity="0.42"/><circle cx="30" cy="446" r="0.69" fill="white" opacity="0.47"/><circle cx="123" cy="453" r="0.91" fill="white" opacity="0.51"/><circle cx="428" cy="489" r="0.54" fill="white" opacity="0.42"/><circle cx="480" cy="494" r="0.83" fill="white" opacity="0.46"/><circle cx="96" cy="253" r="0.53" fill="white" opacity="0.2"/><circle cx="319" cy="456" r="0.54" fill="white" opacity="0.43"/><circle cx="41" cy="137" r="0.73" fill="white" opacity="0.37"/><circle cx="371" cy="251" r="0.82" fill="white" opacity="0.35"/><circle cx="439" cy="461" r="0.81" fill="white" opacity="0.24"/><circle cx="315" cy="376" r="0.49" fill="white" opacity="0.58"/><circle cx="286" cy="315" r="0.9" fill="white" opacity="0.37"/><circle cx="29" cy="473" r="0.76" fill="white" opacity="0.52"/><circle cx="170" cy="318" r="0.61" fill="white" opacity="0.52"/><circle cx="170" cy="53" r="0.42" fill="white" opacity="0.52"/><circle cx="412" cy="103" r="0.32" fill="white" opacity="0.27"/><circle cx="51" cy="217" r="0.91" fill="white" opacity="0.39"/><circle cx="84" cy="120" r="0.87" fill="white" opacity="0.55"/><circle cx="292" cy="310" r="0.31" fill="white" opacity="0.6"/><circle cx="336" cy="226" r="0.64" fill="white" opacity="0.4"/><circle cx="129" cy="361" r="0.72" fill="white" opacity="0.51"/><circle cx="173" cy="458" r="0.68" fill="white" opacity="0.25"/><circle cx="306" cy="357" r="0.41" fill="white" opacity="0.5"/><circle cx="146" cy="5" r="0.45" fill="white" opacity="0.2"/><circle cx="35" cy="45" r="0.56" fill="white" opacity="0.59"/><circle cx="189" cy="215" r="0.64" fill="white" opacity="0.57"/><circle cx="338" cy="132" r="0.89" fill="white" opacity="0.41"/><circle cx="428" cy="391" r="0.42" fill="white" opacity="0.33"/><circle cx="432" cy="47" r="0.39" fill="white" opacity="0.56"/><circle cx="373" cy="310" r="0.72" fill="white" opacity="0.43"/><circle cx="23" cy="120" r="0.78" fill="white" opacity="0.47"/><circle cx="239" cy="365" r="0.37" fill="white" opacity="0.39"/><circle cx="26" cy="497" r="0.99" fill="white" opacity="0.3"/><circle cx="98" cy="200" r="0.53" fill="white" opacity="0.48"/><circle cx="411" cy="460" r="0.34" fill="white" opacity="0.56"/><circle cx="397" cy="190" r="0.84" fill="white" opacity="0.26"/><circle cx="432" cy="389" r="0.5" fill="white" opacity="0.27"/><circle cx="311" cy="105" r="0.66" fill="white" opacity="0.2"/><circle cx="178" cy="484" r="0.54" fill="white" opacity="0.31"/><circle cx="422" cy="56" r="0.66" fill="white" opacity="0.45"/><circle cx="227" cy="316" r="0.9" fill="white" opacity="0.39"/>
</svg>
