<svg width="100" height="100" viewBox="0 0 100 100" xmlns="http://www.w3.org/2000/svg">
<circle cx="88" cy="28" r="1.22" fill="white" opacity="0.85"/><circle cx="37" cy="20" r="0.95" fill="white" opacity="0.88"/><circle cx="22" cy="65" r="0.58" fill="white" opacity="0.52"/><circle cx="49" cy="24" r="1.09" fill="white" opacity="0.57"/><circle cx="86" cy="66" r="0.69" fill="white" opacity="0.82"/><circle cx="60" cy="92" r="1.31" fill="white" opacity="0.76"/><circle cx="75" cy="100" r="0.73" fill="white" opacity="0.57"/><circle cx="31" cy="1" r="0.78" fill="white" opacity="0.62"/><circle cx="63" cy="48" r="1.25" fill="white" opacity="0.55"/><circle cx="70" cy="3" r="0.64" fill="white" opacity="0.65"/><circle cx="48" cy="63" r="1.41" fill="white" opacity="0.82"/><circle cx="20" cy="25" r="1.27" fill="white" opacity="0.66"/><circle cx="95" cy="24" r="0.51" fill="white" opacity="0.69"/><circle cx="9" cy="75" r="1.26" fill="white" opacity="0.74"/><circle cx="59" cy="22" r="0.96" fill="white" opacity="0.67"/><circle cx="70" cy="75" r="0.71" fill="white" opacity="0.84"/><circle cx="73" cy="92" r="1.03" fill="white" opacity="0.62"/><circle cx="7" cy="25" r="1.13" fill="white" opacity="0.51"/><circle cx="52" cy="46" r="0.75" fill="white" opacity="0.85"/><circle cx="93" cy="0" r="0.7" fill="white" opacity="0.79"/>
</svg>
